<svg width="128" height="128" viewBox="0 0 128 128" fill="none" xmlns="http://www.w3.org/2000/svg">
  <!-- Background circle -->
  <circle cx="64" cy="64" r="60" fill="#667eea" stroke="#764ba2" stroke-width="4"/>
  
  <!-- Focus target -->
  <circle cx="64" cy="64" r="40" fill="none" stroke="white" stroke-width="3"/>
  <circle cx="64" cy="64" r="25" fill="none" stroke="white" stroke-width="3"/>
  <circle cx="64" cy="64" r="10" fill="white"/>
  
  <!-- Eye symbol -->
  <path d="M64 45 C 70 45, 75 50, 75 55 C 75 60, 70 65, 64 65 C 58 65, 53 60, 53 55 C 53 50, 58 45, 64 45 Z" fill="white" opacity="0.8"/>
  <circle cx="64" cy="55" r="3" fill="#667eea"/>
  
  <!-- Productivity arrows -->
  <path d="M85 35 L95 45 L85 55" stroke="white" stroke-width="2" fill="none" opacity="0.7"/>
  <path d="M43 35 L33 45 L43 55" stroke="white" stroke-width="2" fill="none" opacity="0.7"/>
  
  <!-- Time/clock element -->
  <circle cx="64" cy="80" r="8" fill="none" stroke="white" stroke-width="2" opacity="0.6"/>
  <line x1="64" y1="80" x2="64" y2="72" stroke="white" stroke-width="2" opacity="0.6"/>
  <line x1="64" y1="80" x2="68" y2="80" stroke="white" stroke-width="2" opacity="0.6"/>
</svg> 