<svg width="48" height="48" viewBox="0 0 48 48" fill="none" xmlns="http://www.w3.org/2000/svg">
  <rect width="48" height="48" rx="8" fill="url(#gradient)"/>
  <path d="M24 8C15.2 8 8 15.2 8 24C8 32.8 15.2 40 24 40C32.8 40 40 32.8 40 24C40 15.2 32.8 8 24 8ZM24 36C17.4 36 12 30.6 12 24C12 17.4 17.4 12 24 12C30.6 12 36 17.4 36 24C36 30.6 30.6 36 24 36Z" fill="white"/>
  <path d="M24 16C19.6 16 16 19.6 16 24C16 28.4 19.6 32 24 32C28.4 32 32 28.4 32 24C32 19.6 28.4 16 24 16ZM24 28C21.8 28 20 26.2 20 24C20 21.8 21.8 20 24 20C26.2 20 28 21.8 28 24C28 26.2 26.2 28 24 28Z" fill="white"/>
  <path d="M24 20C22.9 20 22 20.9 22 22C22 23.1 22.9 24 24 24C25.1 24 26 23.1 26 22C26 20.9 25.1 20 24 20Z" fill="white"/>
  <defs>
    <linearGradient id="gradient" x1="0%" y1="0%" x2="100%" y2="100%">
      <stop offset="0%" style="stop-color:#667eea;stop-opacity:1" />
      <stop offset="100%" style="stop-color:#764ba2;stop-opacity:1" />
    </linearGradient>
  </defs>
</svg> 